<mxfile host="app.diagrams.net" modified="2023-05-10T06:21:35.136Z" agent="Mozilla/5.0 (Macintosh; Intel Mac OS X 10_15_7) AppleWebKit/537.36 (KHTML, like Gecko) Chrome/112.0.0.0 Safari/537.36" etag="4GcOmETn2MENbzSCavQ4" version="21.1.8" type="github">
  <diagram name="第 1 页" id="D1CQOp292lNtNwlwD0Dh">
    <mxGraphModel dx="1306" dy="836" grid="1" gridSize="10" guides="1" tooltips="1" connect="1" arrows="1" fold="1" page="0" pageScale="1" pageWidth="827" pageHeight="1169" math="0" shadow="0">
      <root>
        <mxCell id="0" />
        <mxCell id="1" parent="0" />
        <mxCell id="nzKU1kesUL4rAlOl88Yz-4" style="edgeStyle=orthogonalEdgeStyle;rounded=0;orthogonalLoop=1;jettySize=auto;html=1;exitX=0.5;exitY=0.5;exitDx=0;exitDy=0;exitPerimeter=0;entryX=0;entryY=0.5;entryDx=0;entryDy=0;" parent="1" source="nzKU1kesUL4rAlOl88Yz-1" target="nzKU1kesUL4rAlOl88Yz-3" edge="1">
          <mxGeometry relative="1" as="geometry" />
        </mxCell>
        <mxCell id="nzKU1kesUL4rAlOl88Yz-1" value="主播A" style="shape=umlActor;verticalLabelPosition=bottom;verticalAlign=top;html=1;outlineConnect=0;" parent="1" vertex="1">
          <mxGeometry x="140" y="270" width="30" height="60" as="geometry" />
        </mxCell>
        <mxCell id="nzKU1kesUL4rAlOl88Yz-22" style="edgeStyle=orthogonalEdgeStyle;rounded=0;orthogonalLoop=1;jettySize=auto;html=1;exitX=0.5;exitY=0.5;exitDx=0;exitDy=0;exitPerimeter=0;entryX=0;entryY=0.5;entryDx=0;entryDy=0;" parent="1" source="nzKU1kesUL4rAlOl88Yz-2" target="nzKU1kesUL4rAlOl88Yz-21" edge="1">
          <mxGeometry relative="1" as="geometry" />
        </mxCell>
        <mxCell id="nzKU1kesUL4rAlOl88Yz-2" value="主播B" style="shape=umlActor;verticalLabelPosition=bottom;verticalAlign=top;html=1;outlineConnect=0;" parent="1" vertex="1">
          <mxGeometry x="140" y="970" width="30" height="60" as="geometry" />
        </mxCell>
        <mxCell id="OTEw4OgLr6QhDQMsbYtA-49" style="edgeStyle=orthogonalEdgeStyle;rounded=0;orthogonalLoop=1;jettySize=auto;html=1;exitX=1;exitY=0.5;exitDx=0;exitDy=0;entryX=0;entryY=0.5;entryDx=0;entryDy=0;" edge="1" parent="1" source="nzKU1kesUL4rAlOl88Yz-3" target="OTEw4OgLr6QhDQMsbYtA-48">
          <mxGeometry relative="1" as="geometry" />
        </mxCell>
        <mxCell id="nzKU1kesUL4rAlOl88Yz-3" value="/call接口" style="rounded=0;whiteSpace=wrap;html=1;fillColor=#dae8fc;strokeColor=#6c8ebf;" parent="1" vertex="1">
          <mxGeometry x="280" y="275" width="120" height="50" as="geometry" />
        </mxCell>
        <mxCell id="nzKU1kesUL4rAlOl88Yz-8" style="edgeStyle=orthogonalEdgeStyle;rounded=0;orthogonalLoop=1;jettySize=auto;html=1;exitX=0.5;exitY=0;exitDx=0;exitDy=0;entryX=0.5;entryY=1;entryDx=0;entryDy=0;" parent="1" source="nzKU1kesUL4rAlOl88Yz-5" target="nzKU1kesUL4rAlOl88Yz-7" edge="1">
          <mxGeometry relative="1" as="geometry" />
        </mxCell>
        <mxCell id="nzKU1kesUL4rAlOl88Yz-10" style="edgeStyle=orthogonalEdgeStyle;rounded=0;orthogonalLoop=1;jettySize=auto;html=1;exitX=1;exitY=0.5;exitDx=0;exitDy=0;entryX=0;entryY=0.5;entryDx=0;entryDy=0;" parent="1" source="nzKU1kesUL4rAlOl88Yz-5" target="nzKU1kesUL4rAlOl88Yz-9" edge="1">
          <mxGeometry relative="1" as="geometry" />
        </mxCell>
        <mxCell id="nzKU1kesUL4rAlOl88Yz-5" value="beforeCall&amp;nbsp; Hook" style="rounded=0;whiteSpace=wrap;html=1;fillColor=#dae8fc;strokeColor=#6c8ebf;" parent="1" vertex="1">
          <mxGeometry x="661.45" y="275" width="120" height="50" as="geometry" />
        </mxCell>
        <mxCell id="nzKU1kesUL4rAlOl88Yz-7" value="业务校验" style="rounded=0;whiteSpace=wrap;html=1;fillColor=#f8cecc;strokeColor=#b85450;" parent="1" vertex="1">
          <mxGeometry x="661.45" y="180" width="120" height="50" as="geometry" />
        </mxCell>
        <mxCell id="nzKU1kesUL4rAlOl88Yz-12" style="edgeStyle=orthogonalEdgeStyle;rounded=0;orthogonalLoop=1;jettySize=auto;html=1;exitX=1;exitY=0.5;exitDx=0;exitDy=0;entryX=0;entryY=0.5;entryDx=0;entryDy=0;" parent="1" source="nzKU1kesUL4rAlOl88Yz-9" target="nzKU1kesUL4rAlOl88Yz-11" edge="1">
          <mxGeometry relative="1" as="geometry" />
        </mxCell>
        <mxCell id="nzKU1kesUL4rAlOl88Yz-9" value="创建chat实体" style="rounded=0;whiteSpace=wrap;html=1;fillColor=#dae8fc;strokeColor=#6c8ebf;" parent="1" vertex="1">
          <mxGeometry x="847.45" y="275" width="120" height="50" as="geometry" />
        </mxCell>
        <mxCell id="nzKU1kesUL4rAlOl88Yz-14" style="edgeStyle=orthogonalEdgeStyle;rounded=0;orthogonalLoop=1;jettySize=auto;html=1;exitX=1;exitY=0.5;exitDx=0;exitDy=0;entryX=0;entryY=0.5;entryDx=0;entryDy=0;" parent="1" source="nzKU1kesUL4rAlOl88Yz-11" target="nzKU1kesUL4rAlOl88Yz-13" edge="1">
          <mxGeometry relative="1" as="geometry" />
        </mxCell>
        <mxCell id="nzKU1kesUL4rAlOl88Yz-11" value="创建room" style="rounded=0;whiteSpace=wrap;html=1;fillColor=#dae8fc;strokeColor=#6c8ebf;" parent="1" vertex="1">
          <mxGeometry x="1044.45" y="275" width="120" height="50" as="geometry" />
        </mxCell>
        <mxCell id="nzKU1kesUL4rAlOl88Yz-16" style="edgeStyle=orthogonalEdgeStyle;rounded=0;orthogonalLoop=1;jettySize=auto;html=1;exitX=0.5;exitY=0;exitDx=0;exitDy=0;entryX=0.5;entryY=1;entryDx=0;entryDy=0;" parent="1" source="nzKU1kesUL4rAlOl88Yz-13" target="nzKU1kesUL4rAlOl88Yz-15" edge="1">
          <mxGeometry relative="1" as="geometry" />
        </mxCell>
        <mxCell id="OTEw4OgLr6QhDQMsbYtA-52" style="edgeStyle=orthogonalEdgeStyle;rounded=0;orthogonalLoop=1;jettySize=auto;html=1;exitX=1;exitY=0.5;exitDx=0;exitDy=0;entryX=0;entryY=0.5;entryDx=0;entryDy=0;" edge="1" parent="1" source="nzKU1kesUL4rAlOl88Yz-13" target="OTEw4OgLr6QhDQMsbYtA-51">
          <mxGeometry relative="1" as="geometry" />
        </mxCell>
        <mxCell id="nzKU1kesUL4rAlOl88Yz-13" value="afterCreateChat&amp;nbsp; Hook" style="rounded=0;whiteSpace=wrap;html=1;fillColor=#dae8fc;strokeColor=#6c8ebf;" parent="1" vertex="1">
          <mxGeometry x="1229.45" y="275" width="120" height="50" as="geometry" />
        </mxCell>
        <mxCell id="nzKU1kesUL4rAlOl88Yz-18" style="edgeStyle=orthogonalEdgeStyle;rounded=0;orthogonalLoop=1;jettySize=auto;html=1;exitX=0.5;exitY=0;exitDx=0;exitDy=0;entryX=0.5;entryY=1;entryDx=0;entryDy=0;" parent="1" source="nzKU1kesUL4rAlOl88Yz-15" target="nzKU1kesUL4rAlOl88Yz-17" edge="1">
          <mxGeometry relative="1" as="geometry" />
        </mxCell>
        <mxCell id="nzKU1kesUL4rAlOl88Yz-15" value="创建Pk实体" style="rounded=0;whiteSpace=wrap;html=1;fillColor=#f8cecc;strokeColor=#b85450;" parent="1" vertex="1">
          <mxGeometry x="1229.45" y="190" width="120" height="50" as="geometry" />
        </mxCell>
        <mxCell id="nzKU1kesUL4rAlOl88Yz-17" value="NEW状态" style="rounded=0;whiteSpace=wrap;html=1;fillColor=#e1d5e7;strokeColor=#9673a6;" parent="1" vertex="1">
          <mxGeometry x="1229.45" y="110" width="120" height="50" as="geometry" />
        </mxCell>
        <mxCell id="nzKU1kesUL4rAlOl88Yz-19" value="send signal" style="rounded=0;whiteSpace=wrap;html=1;fillColor=#dae8fc;strokeColor=#6c8ebf;" parent="1" vertex="1">
          <mxGeometry x="1609.95" y="275" width="120" height="50" as="geometry" />
        </mxCell>
        <mxCell id="nzKU1kesUL4rAlOl88Yz-54" style="edgeStyle=orthogonalEdgeStyle;rounded=0;orthogonalLoop=1;jettySize=auto;html=1;exitX=1;exitY=0.5;exitDx=0;exitDy=0;" parent="1" source="nzKU1kesUL4rAlOl88Yz-21" target="nzKU1kesUL4rAlOl88Yz-53" edge="1">
          <mxGeometry relative="1" as="geometry" />
        </mxCell>
        <mxCell id="nzKU1kesUL4rAlOl88Yz-21" value="/accept接口" style="rounded=0;whiteSpace=wrap;html=1;fillColor=#dae8fc;strokeColor=#6c8ebf;" parent="1" vertex="1">
          <mxGeometry x="280" y="975" width="120" height="50" as="geometry" />
        </mxCell>
        <mxCell id="nzKU1kesUL4rAlOl88Yz-26" style="edgeStyle=orthogonalEdgeStyle;rounded=0;orthogonalLoop=1;jettySize=auto;html=1;exitX=0.5;exitY=0.5;exitDx=0;exitDy=0;exitPerimeter=0;entryX=0;entryY=0.5;entryDx=0;entryDy=0;" parent="1" source="nzKU1kesUL4rAlOl88Yz-23" target="nzKU1kesUL4rAlOl88Yz-25" edge="1">
          <mxGeometry relative="1" as="geometry" />
        </mxCell>
        <mxCell id="nzKU1kesUL4rAlOl88Yz-23" value="主播A" style="shape=umlActor;verticalLabelPosition=bottom;verticalAlign=top;html=1;outlineConnect=0;" parent="1" vertex="1">
          <mxGeometry x="129.95" y="600" width="30" height="60" as="geometry" />
        </mxCell>
        <mxCell id="nzKU1kesUL4rAlOl88Yz-28" style="edgeStyle=orthogonalEdgeStyle;rounded=0;orthogonalLoop=1;jettySize=auto;html=1;exitX=1;exitY=0.5;exitDx=0;exitDy=0;entryX=0;entryY=0.5;entryDx=0;entryDy=0;" parent="1" source="nzKU1kesUL4rAlOl88Yz-25" target="nzKU1kesUL4rAlOl88Yz-27" edge="1">
          <mxGeometry relative="1" as="geometry" />
        </mxCell>
        <mxCell id="nzKU1kesUL4rAlOl88Yz-25" value="/ready接口" style="rounded=0;whiteSpace=wrap;html=1;fillColor=#dae8fc;strokeColor=#6c8ebf;" parent="1" vertex="1">
          <mxGeometry x="269.95" y="605" width="120" height="50" as="geometry" />
        </mxCell>
        <mxCell id="nzKU1kesUL4rAlOl88Yz-33" style="edgeStyle=orthogonalEdgeStyle;rounded=0;orthogonalLoop=1;jettySize=auto;html=1;exitX=1;exitY=0.5;exitDx=0;exitDy=0;entryX=0;entryY=0.5;entryDx=0;entryDy=0;" parent="1" source="nzKU1kesUL4rAlOl88Yz-27" target="nzKU1kesUL4rAlOl88Yz-29" edge="1">
          <mxGeometry relative="1" as="geometry" />
        </mxCell>
        <mxCell id="nzKU1kesUL4rAlOl88Yz-27" value="roomReady" style="rounded=0;whiteSpace=wrap;html=1;fillColor=#dae8fc;strokeColor=#6c8ebf;" parent="1" vertex="1">
          <mxGeometry x="459.95" y="605" width="120" height="50" as="geometry" />
        </mxCell>
        <mxCell id="nzKU1kesUL4rAlOl88Yz-32" style="edgeStyle=orthogonalEdgeStyle;rounded=0;orthogonalLoop=1;jettySize=auto;html=1;exitX=0.5;exitY=0;exitDx=0;exitDy=0;entryX=0.5;entryY=1;entryDx=0;entryDy=0;entryPerimeter=0;" parent="1" source="nzKU1kesUL4rAlOl88Yz-29" target="nzKU1kesUL4rAlOl88Yz-31" edge="1">
          <mxGeometry relative="1" as="geometry" />
        </mxCell>
        <mxCell id="nzKU1kesUL4rAlOl88Yz-35" style="edgeStyle=orthogonalEdgeStyle;rounded=0;orthogonalLoop=1;jettySize=auto;html=1;exitX=1;exitY=0.5;exitDx=0;exitDy=0;entryX=0;entryY=0.5;entryDx=0;entryDy=0;" parent="1" source="nzKU1kesUL4rAlOl88Yz-29" target="nzKU1kesUL4rAlOl88Yz-34" edge="1">
          <mxGeometry relative="1" as="geometry" />
        </mxCell>
        <mxCell id="nzKU1kesUL4rAlOl88Yz-29" value="update user ready" style="rounded=0;whiteSpace=wrap;html=1;fillColor=#dae8fc;strokeColor=#6c8ebf;" parent="1" vertex="1">
          <mxGeometry x="645.95" y="605" width="120" height="50" as="geometry" />
        </mxCell>
        <mxCell id="nzKU1kesUL4rAlOl88Yz-31" value="Redis" style="shape=cylinder3;whiteSpace=wrap;html=1;boundedLbl=1;backgroundOutline=1;size=15;fillColor=#fff2cc;strokeColor=#d6b656;" parent="1" vertex="1">
          <mxGeometry x="675.95" y="480" width="60" height="80" as="geometry" />
        </mxCell>
        <mxCell id="nzKU1kesUL4rAlOl88Yz-37" style="edgeStyle=orthogonalEdgeStyle;rounded=0;orthogonalLoop=1;jettySize=auto;html=1;exitX=0.5;exitY=0;exitDx=0;exitDy=0;entryX=0.5;entryY=1;entryDx=0;entryDy=0;" parent="1" source="nzKU1kesUL4rAlOl88Yz-34" target="nzKU1kesUL4rAlOl88Yz-36" edge="1">
          <mxGeometry relative="1" as="geometry" />
        </mxCell>
        <mxCell id="nzKU1kesUL4rAlOl88Yz-39" style="edgeStyle=orthogonalEdgeStyle;rounded=0;orthogonalLoop=1;jettySize=auto;html=1;exitX=1;exitY=0.5;exitDx=0;exitDy=0;entryX=0;entryY=0.5;entryDx=0;entryDy=0;" parent="1" source="nzKU1kesUL4rAlOl88Yz-34" target="nzKU1kesUL4rAlOl88Yz-38" edge="1">
          <mxGeometry relative="1" as="geometry" />
        </mxCell>
        <mxCell id="nzKU1kesUL4rAlOl88Yz-34" value="afterReady&amp;nbsp; Hook" style="rounded=0;whiteSpace=wrap;html=1;fillColor=#dae8fc;strokeColor=#6c8ebf;" parent="1" vertex="1">
          <mxGeometry x="839.95" y="605" width="120" height="50" as="geometry" />
        </mxCell>
        <mxCell id="nzKU1kesUL4rAlOl88Yz-36" value="update pk user info" style="rounded=0;whiteSpace=wrap;html=1;fillColor=#f8cecc;strokeColor=#b85450;" parent="1" vertex="1">
          <mxGeometry x="839.95" y="495" width="120" height="50" as="geometry" />
        </mxCell>
        <mxCell id="nzKU1kesUL4rAlOl88Yz-41" style="edgeStyle=orthogonalEdgeStyle;rounded=0;orthogonalLoop=1;jettySize=auto;html=1;exitX=0.5;exitY=0;exitDx=0;exitDy=0;entryX=0.5;entryY=1;entryDx=0;entryDy=0;entryPerimeter=0;" parent="1" source="nzKU1kesUL4rAlOl88Yz-38" target="nzKU1kesUL4rAlOl88Yz-40" edge="1">
          <mxGeometry relative="1" as="geometry" />
        </mxCell>
        <mxCell id="nzKU1kesUL4rAlOl88Yz-44" style="edgeStyle=orthogonalEdgeStyle;rounded=0;orthogonalLoop=1;jettySize=auto;html=1;exitX=1;exitY=0.5;exitDx=0;exitDy=0;entryX=0;entryY=0.5;entryDx=0;entryDy=0;" parent="1" source="nzKU1kesUL4rAlOl88Yz-38" target="nzKU1kesUL4rAlOl88Yz-43" edge="1">
          <mxGeometry relative="1" as="geometry" />
        </mxCell>
        <mxCell id="nzKU1kesUL4rAlOl88Yz-38" value="isChatReady？" style="rhombus;whiteSpace=wrap;html=1;fillColor=#ffe6cc;strokeColor=#d79b00;" parent="1" vertex="1">
          <mxGeometry x="1029.95" y="590" width="140" height="80" as="geometry" />
        </mxCell>
        <mxCell id="nzKU1kesUL4rAlOl88Yz-40" value="结束" style="strokeWidth=2;html=1;shape=mxgraph.flowchart.terminator;whiteSpace=wrap;" parent="1" vertex="1">
          <mxGeometry x="1057.95" y="500" width="84" height="40" as="geometry" />
        </mxCell>
        <mxCell id="nzKU1kesUL4rAlOl88Yz-42" value="N" style="text;html=1;align=center;verticalAlign=middle;resizable=0;points=[];autosize=1;strokeColor=none;fillColor=none;" parent="1" vertex="1">
          <mxGeometry x="1099.95" y="560" width="30" height="30" as="geometry" />
        </mxCell>
        <mxCell id="nzKU1kesUL4rAlOl88Yz-46" style="edgeStyle=orthogonalEdgeStyle;rounded=0;orthogonalLoop=1;jettySize=auto;html=1;exitX=0.5;exitY=0;exitDx=0;exitDy=0;entryX=0.5;entryY=1;entryDx=0;entryDy=0;" parent="1" source="nzKU1kesUL4rAlOl88Yz-43" target="nzKU1kesUL4rAlOl88Yz-45" edge="1">
          <mxGeometry relative="1" as="geometry" />
        </mxCell>
        <mxCell id="nzKU1kesUL4rAlOl88Yz-50" style="edgeStyle=orthogonalEdgeStyle;rounded=0;orthogonalLoop=1;jettySize=auto;html=1;exitX=1;exitY=0.5;exitDx=0;exitDy=0;entryX=0;entryY=0.5;entryDx=0;entryDy=0;" parent="1" source="nzKU1kesUL4rAlOl88Yz-43" target="nzKU1kesUL4rAlOl88Yz-49" edge="1">
          <mxGeometry relative="1" as="geometry" />
        </mxCell>
        <mxCell id="nzKU1kesUL4rAlOl88Yz-43" value="afterChatReady&amp;nbsp; Hook" style="rounded=0;whiteSpace=wrap;html=1;fillColor=#dae8fc;strokeColor=#6c8ebf;" parent="1" vertex="1">
          <mxGeometry x="1219.95" y="605" width="120" height="50" as="geometry" />
        </mxCell>
        <mxCell id="nzKU1kesUL4rAlOl88Yz-48" style="edgeStyle=orthogonalEdgeStyle;rounded=0;orthogonalLoop=1;jettySize=auto;html=1;exitX=1;exitY=0.5;exitDx=0;exitDy=0;entryX=0;entryY=0.5;entryDx=0;entryDy=0;" parent="1" source="nzKU1kesUL4rAlOl88Yz-45" target="nzKU1kesUL4rAlOl88Yz-47" edge="1">
          <mxGeometry relative="1" as="geometry" />
        </mxCell>
        <mxCell id="nzKU1kesUL4rAlOl88Yz-118" style="edgeStyle=orthogonalEdgeStyle;rounded=0;orthogonalLoop=1;jettySize=auto;html=1;exitX=0.5;exitY=0;exitDx=0;exitDy=0;entryX=0.5;entryY=1;entryDx=0;entryDy=0;" parent="1" source="nzKU1kesUL4rAlOl88Yz-45" target="nzKU1kesUL4rAlOl88Yz-117" edge="1">
          <mxGeometry relative="1" as="geometry" />
        </mxCell>
        <mxCell id="nzKU1kesUL4rAlOl88Yz-45" value="start duet pk time" style="rounded=0;whiteSpace=wrap;html=1;fillColor=#f8cecc;strokeColor=#b85450;" parent="1" vertex="1">
          <mxGeometry x="1219.95" y="500" width="120" height="50" as="geometry" />
        </mxCell>
        <mxCell id="nzKU1kesUL4rAlOl88Yz-47" value="send delay message" style="rounded=0;whiteSpace=wrap;html=1;fillColor=#f8cecc;strokeColor=#b85450;" parent="1" vertex="1">
          <mxGeometry x="1409.95" y="500" width="120" height="50" as="geometry" />
        </mxCell>
        <mxCell id="nzKU1kesUL4rAlOl88Yz-52" style="edgeStyle=orthogonalEdgeStyle;rounded=0;orthogonalLoop=1;jettySize=auto;html=1;exitX=1;exitY=0.5;exitDx=0;exitDy=0;entryX=0;entryY=0.5;entryDx=0;entryDy=0;" parent="1" source="nzKU1kesUL4rAlOl88Yz-49" target="nzKU1kesUL4rAlOl88Yz-51" edge="1">
          <mxGeometry relative="1" as="geometry" />
        </mxCell>
        <mxCell id="nzKU1kesUL4rAlOl88Yz-49" value="sendSwitchBizSignal" style="rounded=0;whiteSpace=wrap;html=1;fillColor=#dae8fc;strokeColor=#6c8ebf;" parent="1" vertex="1">
          <mxGeometry x="1409.95" y="605" width="120" height="50" as="geometry" />
        </mxCell>
        <mxCell id="nzKU1kesUL4rAlOl88Yz-51" value="广播当前麦上用户信息&lt;br&gt;&amp;amp;&amp;amp; sendRoomInfo" style="rounded=0;whiteSpace=wrap;html=1;fillColor=#dae8fc;strokeColor=#6c8ebf;" parent="1" vertex="1">
          <mxGeometry x="1589.95" y="605" width="140" height="50" as="geometry" />
        </mxCell>
        <mxCell id="nzKU1kesUL4rAlOl88Yz-61" style="edgeStyle=orthogonalEdgeStyle;rounded=0;orthogonalLoop=1;jettySize=auto;html=1;exitX=1;exitY=0.5;exitDx=0;exitDy=0;entryX=0;entryY=0.5;entryDx=0;entryDy=0;" parent="1" source="nzKU1kesUL4rAlOl88Yz-53" target="nzKU1kesUL4rAlOl88Yz-60" edge="1">
          <mxGeometry relative="1" as="geometry" />
        </mxCell>
        <mxCell id="OTEw4OgLr6QhDQMsbYtA-58" style="edgeStyle=orthogonalEdgeStyle;rounded=0;orthogonalLoop=1;jettySize=auto;html=1;exitX=0.5;exitY=0;exitDx=0;exitDy=0;entryX=0.5;entryY=1;entryDx=0;entryDy=0;" edge="1" parent="1" source="nzKU1kesUL4rAlOl88Yz-53" target="OTEw4OgLr6QhDQMsbYtA-56">
          <mxGeometry relative="1" as="geometry" />
        </mxCell>
        <mxCell id="nzKU1kesUL4rAlOl88Yz-53" value="beforeAccept&amp;nbsp; Hook" style="rounded=0;whiteSpace=wrap;html=1;fillColor=#dae8fc;strokeColor=#6c8ebf;" parent="1" vertex="1">
          <mxGeometry x="470" y="975" width="120" height="50" as="geometry" />
        </mxCell>
        <mxCell id="nzKU1kesUL4rAlOl88Yz-59" style="edgeStyle=orthogonalEdgeStyle;rounded=0;orthogonalLoop=1;jettySize=auto;html=1;exitX=0.5;exitY=0;exitDx=0;exitDy=0;entryX=0.5;entryY=1;entryDx=0;entryDy=0;" parent="1" source="nzKU1kesUL4rAlOl88Yz-55" target="nzKU1kesUL4rAlOl88Yz-58" edge="1">
          <mxGeometry relative="1" as="geometry" />
        </mxCell>
        <mxCell id="nzKU1kesUL4rAlOl88Yz-55" value="业务校验&lt;br&gt;&amp;amp;&amp;amp; 流转状态" style="rounded=0;whiteSpace=wrap;html=1;fillColor=#f8cecc;strokeColor=#b85450;" parent="1" vertex="1">
          <mxGeometry x="656" y="880" width="120" height="50" as="geometry" />
        </mxCell>
        <mxCell id="nzKU1kesUL4rAlOl88Yz-58" value="ACCEPT状态" style="rounded=0;whiteSpace=wrap;html=1;fillColor=#e1d5e7;strokeColor=#9673a6;" parent="1" vertex="1">
          <mxGeometry x="656" y="800" width="120" height="50" as="geometry" />
        </mxCell>
        <mxCell id="OTEw4OgLr6QhDQMsbYtA-60" style="edgeStyle=orthogonalEdgeStyle;rounded=0;orthogonalLoop=1;jettySize=auto;html=1;exitX=1;exitY=0.5;exitDx=0;exitDy=0;entryX=0;entryY=0.5;entryDx=0;entryDy=0;" edge="1" parent="1" source="nzKU1kesUL4rAlOl88Yz-60" target="OTEw4OgLr6QhDQMsbYtA-59">
          <mxGeometry relative="1" as="geometry" />
        </mxCell>
        <mxCell id="nzKU1kesUL4rAlOl88Yz-60" value="更新lsId对chatId映射" style="rounded=0;whiteSpace=wrap;html=1;fillColor=#dae8fc;strokeColor=#6c8ebf;" parent="1" vertex="1">
          <mxGeometry x="656" y="975" width="120" height="50" as="geometry" />
        </mxCell>
        <mxCell id="nzKU1kesUL4rAlOl88Yz-64" style="edgeStyle=orthogonalEdgeStyle;rounded=0;orthogonalLoop=1;jettySize=auto;html=1;exitX=0.5;exitY=0.5;exitDx=0;exitDy=0;exitPerimeter=0;entryX=0;entryY=0.5;entryDx=0;entryDy=0;" parent="1" source="nzKU1kesUL4rAlOl88Yz-62" target="nzKU1kesUL4rAlOl88Yz-63" edge="1">
          <mxGeometry relative="1" as="geometry" />
        </mxCell>
        <mxCell id="nzKU1kesUL4rAlOl88Yz-62" value="主播B" style="shape=umlActor;verticalLabelPosition=bottom;verticalAlign=top;html=1;outlineConnect=0;" parent="1" vertex="1">
          <mxGeometry x="129.95" y="1260" width="30" height="60" as="geometry" />
        </mxCell>
        <mxCell id="nzKU1kesUL4rAlOl88Yz-66" style="edgeStyle=orthogonalEdgeStyle;rounded=0;orthogonalLoop=1;jettySize=auto;html=1;exitX=1;exitY=0.5;exitDx=0;exitDy=0;entryX=0;entryY=0.5;entryDx=0;entryDy=0;" parent="1" source="nzKU1kesUL4rAlOl88Yz-63" target="nzKU1kesUL4rAlOl88Yz-65" edge="1">
          <mxGeometry relative="1" as="geometry" />
        </mxCell>
        <mxCell id="nzKU1kesUL4rAlOl88Yz-63" value="/reject接口" style="rounded=0;whiteSpace=wrap;html=1;fillColor=#dae8fc;strokeColor=#6c8ebf;" parent="1" vertex="1">
          <mxGeometry x="269.95" y="1265" width="120" height="50" as="geometry" />
        </mxCell>
        <mxCell id="nzKU1kesUL4rAlOl88Yz-68" style="edgeStyle=orthogonalEdgeStyle;rounded=0;orthogonalLoop=1;jettySize=auto;html=1;exitX=0.5;exitY=0;exitDx=0;exitDy=0;entryX=0.5;entryY=1;entryDx=0;entryDy=0;" parent="1" source="nzKU1kesUL4rAlOl88Yz-65" target="nzKU1kesUL4rAlOl88Yz-67" edge="1">
          <mxGeometry relative="1" as="geometry" />
        </mxCell>
        <mxCell id="nzKU1kesUL4rAlOl88Yz-70" style="edgeStyle=orthogonalEdgeStyle;rounded=0;orthogonalLoop=1;jettySize=auto;html=1;exitX=1;exitY=0.5;exitDx=0;exitDy=0;entryX=0;entryY=0.5;entryDx=0;entryDy=0;" parent="1" source="nzKU1kesUL4rAlOl88Yz-65" target="nzKU1kesUL4rAlOl88Yz-69" edge="1">
          <mxGeometry relative="1" as="geometry" />
        </mxCell>
        <mxCell id="nzKU1kesUL4rAlOl88Yz-65" value="beforeReject&amp;nbsp; Hook" style="rounded=0;whiteSpace=wrap;html=1;fillColor=#dae8fc;strokeColor=#6c8ebf;" parent="1" vertex="1">
          <mxGeometry x="459.95" y="1265" width="120" height="50" as="geometry" />
        </mxCell>
        <mxCell id="nzKU1kesUL4rAlOl88Yz-67" value="校验 &amp;amp;&amp;amp;&lt;br&gt;透传leaveBizExtraInfo" style="rounded=0;whiteSpace=wrap;html=1;fillColor=#f8cecc;strokeColor=#b85450;" parent="1" vertex="1">
          <mxGeometry x="459.95" y="1170" width="120" height="50" as="geometry" />
        </mxCell>
        <mxCell id="nzKU1kesUL4rAlOl88Yz-72" style="edgeStyle=orthogonalEdgeStyle;rounded=0;orthogonalLoop=1;jettySize=auto;html=1;exitX=1;exitY=0.5;exitDx=0;exitDy=0;entryX=0;entryY=0.5;entryDx=0;entryDy=0;" parent="1" source="nzKU1kesUL4rAlOl88Yz-69" target="nzKU1kesUL4rAlOl88Yz-71" edge="1">
          <mxGeometry relative="1" as="geometry" />
        </mxCell>
        <mxCell id="nzKU1kesUL4rAlOl88Yz-69" value="leave room" style="rounded=0;whiteSpace=wrap;html=1;fillColor=#dae8fc;strokeColor=#6c8ebf;" parent="1" vertex="1">
          <mxGeometry x="659.95" y="1265" width="120" height="50" as="geometry" />
        </mxCell>
        <mxCell id="nzKU1kesUL4rAlOl88Yz-74" style="edgeStyle=orthogonalEdgeStyle;rounded=0;orthogonalLoop=1;jettySize=auto;html=1;exitX=1;exitY=0.5;exitDx=0;exitDy=0;entryX=0;entryY=0.5;entryDx=0;entryDy=0;" parent="1" source="nzKU1kesUL4rAlOl88Yz-71" target="nzKU1kesUL4rAlOl88Yz-73" edge="1">
          <mxGeometry relative="1" as="geometry" />
        </mxCell>
        <mxCell id="nzKU1kesUL4rAlOl88Yz-71" value="清理框架缓存" style="rounded=0;whiteSpace=wrap;html=1;fillColor=#dae8fc;strokeColor=#6c8ebf;" parent="1" vertex="1">
          <mxGeometry x="839.95" y="1265" width="120" height="50" as="geometry" />
        </mxCell>
        <mxCell id="nzKU1kesUL4rAlOl88Yz-76" style="edgeStyle=orthogonalEdgeStyle;rounded=0;orthogonalLoop=1;jettySize=auto;html=1;exitX=0.5;exitY=0;exitDx=0;exitDy=0;entryX=0.5;entryY=1;entryDx=0;entryDy=0;" parent="1" source="nzKU1kesUL4rAlOl88Yz-73" target="nzKU1kesUL4rAlOl88Yz-75" edge="1">
          <mxGeometry relative="1" as="geometry" />
        </mxCell>
        <mxCell id="xWlnuquYRTVBCmx58FOR-1" style="edgeStyle=orthogonalEdgeStyle;rounded=0;orthogonalLoop=1;jettySize=auto;html=1;exitX=0.5;exitY=1;exitDx=0;exitDy=0;entryX=0.5;entryY=0;entryDx=0;entryDy=0;" parent="1" source="nzKU1kesUL4rAlOl88Yz-73" target="nzKU1kesUL4rAlOl88Yz-79" edge="1">
          <mxGeometry relative="1" as="geometry" />
        </mxCell>
        <mxCell id="nzKU1kesUL4rAlOl88Yz-73" value="afterLeave&amp;nbsp; Hook" style="rounded=0;whiteSpace=wrap;html=1;fillColor=#dae8fc;strokeColor=#6c8ebf;" parent="1" vertex="1">
          <mxGeometry x="1039.95" y="1265" width="120" height="50" as="geometry" />
        </mxCell>
        <mxCell id="nzKU1kesUL4rAlOl88Yz-78" style="edgeStyle=orthogonalEdgeStyle;rounded=0;orthogonalLoop=1;jettySize=auto;html=1;exitX=0.5;exitY=0;exitDx=0;exitDy=0;entryX=0.5;entryY=1;entryDx=0;entryDy=0;" parent="1" source="nzKU1kesUL4rAlOl88Yz-75" edge="1">
          <mxGeometry relative="1" as="geometry">
            <mxPoint x="1099.95" y="1140" as="targetPoint" />
          </mxGeometry>
        </mxCell>
        <mxCell id="nzKU1kesUL4rAlOl88Yz-75" value="关闭PK" style="rounded=0;whiteSpace=wrap;html=1;fillColor=#f8cecc;strokeColor=#b85450;" parent="1" vertex="1">
          <mxGeometry x="1039.95" y="1180" width="120" height="50" as="geometry" />
        </mxCell>
        <mxCell id="nzKU1kesUL4rAlOl88Yz-77" value="END状态" style="rounded=0;whiteSpace=wrap;html=1;fillColor=#e1d5e7;strokeColor=#9673a6;" parent="1" vertex="1">
          <mxGeometry x="1039.95" y="1090" width="120" height="50" as="geometry" />
        </mxCell>
        <mxCell id="nzKU1kesUL4rAlOl88Yz-109" style="edgeStyle=orthogonalEdgeStyle;rounded=0;orthogonalLoop=1;jettySize=auto;html=1;exitX=0;exitY=0.5;exitDx=0;exitDy=0;entryX=1;entryY=0.5;entryDx=0;entryDy=0;" parent="1" source="nzKU1kesUL4rAlOl88Yz-79" target="nzKU1kesUL4rAlOl88Yz-108" edge="1">
          <mxGeometry relative="1" as="geometry" />
        </mxCell>
        <mxCell id="nzKU1kesUL4rAlOl88Yz-79" value="send reject signal" style="rounded=0;whiteSpace=wrap;html=1;fillColor=#dae8fc;strokeColor=#6c8ebf;" parent="1" vertex="1">
          <mxGeometry x="1039.95" y="1370" width="120" height="50" as="geometry" />
        </mxCell>
        <mxCell id="nzKU1kesUL4rAlOl88Yz-113" style="edgeStyle=orthogonalEdgeStyle;rounded=0;orthogonalLoop=1;jettySize=auto;html=1;exitX=0;exitY=0.5;exitDx=0;exitDy=0;entryX=1;entryY=0.5;entryDx=0;entryDy=0;" parent="1" source="nzKU1kesUL4rAlOl88Yz-81" target="nzKU1kesUL4rAlOl88Yz-112" edge="1">
          <mxGeometry relative="1" as="geometry" />
        </mxCell>
        <mxCell id="nzKU1kesUL4rAlOl88Yz-81" value="end chat" style="rounded=0;whiteSpace=wrap;html=1;fillColor=#dae8fc;strokeColor=#6c8ebf;" parent="1" vertex="1">
          <mxGeometry x="659.95" y="1370" width="120" height="50" as="geometry" />
        </mxCell>
        <mxCell id="nzKU1kesUL4rAlOl88Yz-83" value="send close signal" style="rounded=0;whiteSpace=wrap;html=1;fillColor=#dae8fc;strokeColor=#6c8ebf;" parent="1" vertex="1">
          <mxGeometry x="269.95" y="1370" width="120" height="50" as="geometry" />
        </mxCell>
        <mxCell id="nzKU1kesUL4rAlOl88Yz-110" style="edgeStyle=orthogonalEdgeStyle;rounded=0;orthogonalLoop=1;jettySize=auto;html=1;exitX=0;exitY=0.5;exitDx=0;exitDy=0;entryX=1;entryY=0.5;entryDx=0;entryDy=0;" parent="1" source="nzKU1kesUL4rAlOl88Yz-108" target="nzKU1kesUL4rAlOl88Yz-81" edge="1">
          <mxGeometry relative="1" as="geometry" />
        </mxCell>
        <mxCell id="nzKU1kesUL4rAlOl88Yz-108" value="isNeedCloseRoom？" style="rhombus;whiteSpace=wrap;html=1;fillColor=#fff2cc;strokeColor=#d6b656;" parent="1" vertex="1">
          <mxGeometry x="829.95" y="1340" width="160" height="110" as="geometry" />
        </mxCell>
        <mxCell id="nzKU1kesUL4rAlOl88Yz-111" value="Y" style="text;html=1;align=center;verticalAlign=middle;resizable=0;points=[];autosize=1;strokeColor=none;fillColor=none;" parent="1" vertex="1">
          <mxGeometry x="799.95" y="1370" width="30" height="30" as="geometry" />
        </mxCell>
        <mxCell id="nzKU1kesUL4rAlOl88Yz-114" style="edgeStyle=orthogonalEdgeStyle;rounded=0;orthogonalLoop=1;jettySize=auto;html=1;exitX=0;exitY=0.5;exitDx=0;exitDy=0;entryX=1;entryY=0.5;entryDx=0;entryDy=0;" parent="1" source="nzKU1kesUL4rAlOl88Yz-112" target="nzKU1kesUL4rAlOl88Yz-83" edge="1">
          <mxGeometry relative="1" as="geometry" />
        </mxCell>
        <mxCell id="nzKU1kesUL4rAlOl88Yz-116" style="edgeStyle=orthogonalEdgeStyle;rounded=0;orthogonalLoop=1;jettySize=auto;html=1;exitX=0.5;exitY=1;exitDx=0;exitDy=0;entryX=0.5;entryY=0;entryDx=0;entryDy=0;" parent="1" source="nzKU1kesUL4rAlOl88Yz-112" target="nzKU1kesUL4rAlOl88Yz-115" edge="1">
          <mxGeometry relative="1" as="geometry" />
        </mxCell>
        <mxCell id="nzKU1kesUL4rAlOl88Yz-112" value="afterClose&amp;nbsp; Hook" style="rounded=0;whiteSpace=wrap;html=1;fillColor=#dae8fc;strokeColor=#6c8ebf;" parent="1" vertex="1">
          <mxGeometry x="459.95" y="1370" width="120" height="50" as="geometry" />
        </mxCell>
        <mxCell id="nzKU1kesUL4rAlOl88Yz-115" value="判断PK是否关闭&lt;br&gt;如果没关则关闭" style="rounded=0;whiteSpace=wrap;html=1;fillColor=#f8cecc;strokeColor=#b85450;" parent="1" vertex="1">
          <mxGeometry x="459.95" y="1470" width="120" height="50" as="geometry" />
        </mxCell>
        <mxCell id="nzKU1kesUL4rAlOl88Yz-117" value="START状态" style="rounded=0;whiteSpace=wrap;html=1;fillColor=#e1d5e7;strokeColor=#9673a6;" parent="1" vertex="1">
          <mxGeometry x="1219.95" y="400" width="120" height="50" as="geometry" />
        </mxCell>
        <mxCell id="OTEw4OgLr6QhDQMsbYtA-1" value="&lt;font style=&quot;font-size: 36px;&quot;&gt;邀请链路主流程&lt;/font&gt;" style="text;html=1;align=center;verticalAlign=middle;resizable=0;points=[];autosize=1;strokeColor=none;fillColor=none;" vertex="1" parent="1">
          <mxGeometry x="40" y="40" width="280" height="60" as="geometry" />
        </mxCell>
        <mxCell id="OTEw4OgLr6QhDQMsbYtA-2" value="&lt;font style=&quot;font-size: 36px;&quot;&gt;好友列表&lt;/font&gt;" style="text;html=1;align=center;verticalAlign=middle;resizable=0;points=[];autosize=1;strokeColor=none;fillColor=none;" vertex="1" parent="1">
          <mxGeometry x="55" y="1573" width="170" height="60" as="geometry" />
        </mxCell>
        <mxCell id="OTEw4OgLr6QhDQMsbYtA-5" style="edgeStyle=orthogonalEdgeStyle;rounded=0;orthogonalLoop=1;jettySize=auto;html=1;exitX=0.5;exitY=0.5;exitDx=0;exitDy=0;exitPerimeter=0;entryX=0;entryY=0.5;entryDx=0;entryDy=0;" edge="1" parent="1" source="OTEw4OgLr6QhDQMsbYtA-3" target="OTEw4OgLr6QhDQMsbYtA-4">
          <mxGeometry relative="1" as="geometry" />
        </mxCell>
        <mxCell id="OTEw4OgLr6QhDQMsbYtA-3" value="主播" style="shape=umlActor;verticalLabelPosition=bottom;verticalAlign=top;html=1;outlineConnect=0;" vertex="1" parent="1">
          <mxGeometry x="159.95" y="1710" width="30" height="60" as="geometry" />
        </mxCell>
        <mxCell id="OTEw4OgLr6QhDQMsbYtA-7" style="edgeStyle=orthogonalEdgeStyle;rounded=0;orthogonalLoop=1;jettySize=auto;html=1;exitX=1;exitY=0.5;exitDx=0;exitDy=0;entryX=0;entryY=0.5;entryDx=0;entryDy=0;" edge="1" parent="1" source="OTEw4OgLr6QhDQMsbYtA-4" target="OTEw4OgLr6QhDQMsbYtA-6">
          <mxGeometry relative="1" as="geometry" />
        </mxCell>
        <mxCell id="OTEw4OgLr6QhDQMsbYtA-4" value="/liveFriends接口" style="rounded=0;whiteSpace=wrap;html=1;fillColor=#dae8fc;strokeColor=#6c8ebf;" vertex="1" parent="1">
          <mxGeometry x="300" y="1715" width="120" height="50" as="geometry" />
        </mxCell>
        <mxCell id="OTEw4OgLr6QhDQMsbYtA-9" style="edgeStyle=orthogonalEdgeStyle;rounded=0;orthogonalLoop=1;jettySize=auto;html=1;exitX=1;exitY=0.5;exitDx=0;exitDy=0;entryX=0;entryY=0.5;entryDx=0;entryDy=0;" edge="1" parent="1" source="OTEw4OgLr6QhDQMsbYtA-6" target="OTEw4OgLr6QhDQMsbYtA-8">
          <mxGeometry relative="1" as="geometry" />
        </mxCell>
        <mxCell id="OTEw4OgLr6QhDQMsbYtA-6" value="开关 &amp;amp; 新老版本校验" style="rounded=0;whiteSpace=wrap;html=1;fillColor=#dae8fc;strokeColor=#6c8ebf;" vertex="1" parent="1">
          <mxGeometry x="480" y="1715" width="120" height="50" as="geometry" />
        </mxCell>
        <mxCell id="OTEw4OgLr6QhDQMsbYtA-13" style="edgeStyle=orthogonalEdgeStyle;rounded=0;orthogonalLoop=1;jettySize=auto;html=1;exitX=1;exitY=0.5;exitDx=0;exitDy=0;entryX=0;entryY=0.5;entryDx=0;entryDy=0;" edge="1" parent="1" source="OTEw4OgLr6QhDQMsbYtA-8" target="OTEw4OgLr6QhDQMsbYtA-12">
          <mxGeometry relative="1" as="geometry" />
        </mxCell>
        <mxCell id="OTEw4OgLr6QhDQMsbYtA-8" value="获取真实好友列表" style="rounded=0;whiteSpace=wrap;html=1;fillColor=#dae8fc;strokeColor=#6c8ebf;" vertex="1" parent="1">
          <mxGeometry x="675.95" y="1715" width="120" height="50" as="geometry" />
        </mxCell>
        <mxCell id="OTEw4OgLr6QhDQMsbYtA-11" style="edgeStyle=orthogonalEdgeStyle;rounded=0;orthogonalLoop=1;jettySize=auto;html=1;exitX=0.5;exitY=1;exitDx=0;exitDy=0;entryX=0.5;entryY=0;entryDx=0;entryDy=0;" edge="1" parent="1" source="OTEw4OgLr6QhDQMsbYtA-10" target="OTEw4OgLr6QhDQMsbYtA-8">
          <mxGeometry relative="1" as="geometry" />
        </mxCell>
        <mxCell id="OTEw4OgLr6QhDQMsbYtA-10" value="relationInternalService" style="rounded=0;whiteSpace=wrap;html=1;fillColor=#d5e8d4;strokeColor=#82b366;" vertex="1" parent="1">
          <mxGeometry x="675.95" y="1610" width="120" height="50" as="geometry" />
        </mxCell>
        <mxCell id="OTEw4OgLr6QhDQMsbYtA-21" style="edgeStyle=orthogonalEdgeStyle;rounded=0;orthogonalLoop=1;jettySize=auto;html=1;exitX=1;exitY=0.5;exitDx=0;exitDy=0;entryX=0;entryY=0.5;entryDx=0;entryDy=0;" edge="1" parent="1" source="OTEw4OgLr6QhDQMsbYtA-12" target="OTEw4OgLr6QhDQMsbYtA-17">
          <mxGeometry relative="1" as="geometry" />
        </mxCell>
        <mxCell id="OTEw4OgLr6QhDQMsbYtA-22" style="edgeStyle=orthogonalEdgeStyle;rounded=0;orthogonalLoop=1;jettySize=auto;html=1;exitX=1;exitY=0.5;exitDx=0;exitDy=0;entryX=0;entryY=0.5;entryDx=0;entryDy=0;" edge="1" parent="1" source="OTEw4OgLr6QhDQMsbYtA-12" target="OTEw4OgLr6QhDQMsbYtA-14">
          <mxGeometry relative="1" as="geometry" />
        </mxCell>
        <mxCell id="OTEw4OgLr6QhDQMsbYtA-12" value="isSuperAuthority?" style="rhombus;whiteSpace=wrap;html=1;fillColor=#fff2cc;strokeColor=#d6b656;" vertex="1" parent="1">
          <mxGeometry x="860" y="1692.5" width="160" height="95" as="geometry" />
        </mxCell>
        <mxCell id="OTEw4OgLr6QhDQMsbYtA-23" style="edgeStyle=orthogonalEdgeStyle;rounded=0;orthogonalLoop=1;jettySize=auto;html=1;exitX=1;exitY=0.5;exitDx=0;exitDy=0;entryX=0;entryY=0.5;entryDx=0;entryDy=0;" edge="1" parent="1" source="OTEw4OgLr6QhDQMsbYtA-14" target="OTEw4OgLr6QhDQMsbYtA-20">
          <mxGeometry relative="1" as="geometry" />
        </mxCell>
        <mxCell id="OTEw4OgLr6QhDQMsbYtA-14" value="执行过滤&lt;br&gt;SUPER_USER_LIST" style="rounded=0;whiteSpace=wrap;html=1;fillColor=#dae8fc;strokeColor=#6c8ebf;" vertex="1" parent="1">
          <mxGeometry x="1090" y="1663" width="120" height="50" as="geometry" />
        </mxCell>
        <mxCell id="OTEw4OgLr6QhDQMsbYtA-16" value="Y" style="text;html=1;align=center;verticalAlign=middle;resizable=0;points=[];autosize=1;strokeColor=none;fillColor=none;" vertex="1" parent="1">
          <mxGeometry x="1020" y="1670" width="30" height="30" as="geometry" />
        </mxCell>
        <mxCell id="OTEw4OgLr6QhDQMsbYtA-25" style="edgeStyle=orthogonalEdgeStyle;rounded=0;orthogonalLoop=1;jettySize=auto;html=1;exitX=1;exitY=0.5;exitDx=0;exitDy=0;entryX=0;entryY=0.5;entryDx=0;entryDy=0;" edge="1" parent="1" source="OTEw4OgLr6QhDQMsbYtA-17" target="OTEw4OgLr6QhDQMsbYtA-20">
          <mxGeometry relative="1" as="geometry" />
        </mxCell>
        <mxCell id="OTEw4OgLr6QhDQMsbYtA-17" value="执行过滤&lt;br&gt;FRIEND_LIST" style="rounded=0;whiteSpace=wrap;html=1;fillColor=#dae8fc;strokeColor=#6c8ebf;" vertex="1" parent="1">
          <mxGeometry x="1090" y="1750" width="120" height="50" as="geometry" />
        </mxCell>
        <mxCell id="OTEw4OgLr6QhDQMsbYtA-19" value="N" style="text;html=1;align=center;verticalAlign=middle;resizable=0;points=[];autosize=1;strokeColor=none;fillColor=none;" vertex="1" parent="1">
          <mxGeometry x="1020" y="1780" width="30" height="30" as="geometry" />
        </mxCell>
        <mxCell id="OTEw4OgLr6QhDQMsbYtA-27" style="edgeStyle=orthogonalEdgeStyle;rounded=0;orthogonalLoop=1;jettySize=auto;html=1;exitX=1;exitY=0.5;exitDx=0;exitDy=0;entryX=0;entryY=0.5;entryDx=0;entryDy=0;" edge="1" parent="1" source="OTEw4OgLr6QhDQMsbYtA-20" target="OTEw4OgLr6QhDQMsbYtA-26">
          <mxGeometry relative="1" as="geometry" />
        </mxCell>
        <mxCell id="OTEw4OgLr6QhDQMsbYtA-20" value="获取过滤好友列表" style="rounded=0;whiteSpace=wrap;html=1;fillColor=#dae8fc;strokeColor=#6c8ebf;" vertex="1" parent="1">
          <mxGeometry x="1280" y="1710" width="114.05" height="50" as="geometry" />
        </mxCell>
        <mxCell id="OTEw4OgLr6QhDQMsbYtA-38" style="edgeStyle=orthogonalEdgeStyle;rounded=0;orthogonalLoop=1;jettySize=auto;html=1;exitX=0.5;exitY=1;exitDx=0;exitDy=0;entryX=1;entryY=0.5;entryDx=0;entryDy=0;" edge="1" parent="1" source="OTEw4OgLr6QhDQMsbYtA-26" target="OTEw4OgLr6QhDQMsbYtA-28">
          <mxGeometry relative="1" as="geometry" />
        </mxCell>
        <mxCell id="OTEw4OgLr6QhDQMsbYtA-26" value="注入在线数&lt;br&gt;&amp;amp;快币数&lt;br&gt;&amp;amp;地区&lt;br&gt;&amp;amp;空闲状态&lt;br&gt;&amp;amp;预约状态" style="rounded=0;whiteSpace=wrap;html=1;fillColor=#dae8fc;strokeColor=#6c8ebf;" vertex="1" parent="1">
          <mxGeometry x="1460" y="1697.5" width="114.05" height="75" as="geometry" />
        </mxCell>
        <mxCell id="OTEw4OgLr6QhDQMsbYtA-39" style="edgeStyle=orthogonalEdgeStyle;rounded=0;orthogonalLoop=1;jettySize=auto;html=1;exitX=0;exitY=0.5;exitDx=0;exitDy=0;entryX=1;entryY=0.5;entryDx=0;entryDy=0;" edge="1" parent="1" source="OTEw4OgLr6QhDQMsbYtA-28" target="OTEw4OgLr6QhDQMsbYtA-30">
          <mxGeometry relative="1" as="geometry" />
        </mxCell>
        <mxCell id="OTEw4OgLr6QhDQMsbYtA-28" value="应用电商规则" style="rounded=0;whiteSpace=wrap;html=1;fillColor=#dae8fc;strokeColor=#6c8ebf;" vertex="1" parent="1">
          <mxGeometry x="1280" y="1850" width="114.05" height="50" as="geometry" />
        </mxCell>
        <mxCell id="OTEw4OgLr6QhDQMsbYtA-40" style="edgeStyle=orthogonalEdgeStyle;rounded=0;orthogonalLoop=1;jettySize=auto;html=1;exitX=0;exitY=0.5;exitDx=0;exitDy=0;entryX=1;entryY=0.5;entryDx=0;entryDy=0;" edge="1" parent="1" source="OTEw4OgLr6QhDQMsbYtA-30" target="OTEw4OgLr6QhDQMsbYtA-32">
          <mxGeometry relative="1" as="geometry" />
        </mxCell>
        <mxCell id="OTEw4OgLr6QhDQMsbYtA-30" value="根据reco好友列表排序" style="rounded=0;whiteSpace=wrap;html=1;fillColor=#dae8fc;strokeColor=#6c8ebf;" vertex="1" parent="1">
          <mxGeometry x="1090" y="1850" width="114.05" height="50" as="geometry" />
        </mxCell>
        <mxCell id="OTEw4OgLr6QhDQMsbYtA-43" style="edgeStyle=orthogonalEdgeStyle;rounded=0;orthogonalLoop=1;jettySize=auto;html=1;exitX=0;exitY=0.5;exitDx=0;exitDy=0;entryX=1;entryY=0.5;entryDx=0;entryDy=0;" edge="1" parent="1" source="OTEw4OgLr6QhDQMsbYtA-32" target="OTEw4OgLr6QhDQMsbYtA-34">
          <mxGeometry relative="1" as="geometry" />
        </mxCell>
        <mxCell id="OTEw4OgLr6QhDQMsbYtA-32" value="政策排序&lt;br&gt;&amp;amp;状态替换" style="rounded=0;whiteSpace=wrap;html=1;fillColor=#dae8fc;strokeColor=#6c8ebf;" vertex="1" parent="1">
          <mxGeometry x="882.98" y="1850" width="114.05" height="50" as="geometry" />
        </mxCell>
        <mxCell id="OTEw4OgLr6QhDQMsbYtA-42" style="edgeStyle=orthogonalEdgeStyle;rounded=0;orthogonalLoop=1;jettySize=auto;html=1;exitX=0;exitY=0.5;exitDx=0;exitDy=0;entryX=1;entryY=0.5;entryDx=0;entryDy=0;" edge="1" parent="1" source="OTEw4OgLr6QhDQMsbYtA-34" target="OTEw4OgLr6QhDQMsbYtA-35">
          <mxGeometry relative="1" as="geometry" />
        </mxCell>
        <mxCell id="OTEw4OgLr6QhDQMsbYtA-34" value="并行邀请置顶" style="rounded=0;whiteSpace=wrap;html=1;fillColor=#dae8fc;strokeColor=#6c8ebf;" vertex="1" parent="1">
          <mxGeometry x="675.95" y="1850" width="114.05" height="50" as="geometry" />
        </mxCell>
        <mxCell id="OTEw4OgLr6QhDQMsbYtA-45" style="edgeStyle=orthogonalEdgeStyle;rounded=0;orthogonalLoop=1;jettySize=auto;html=1;exitX=0;exitY=0.5;exitDx=0;exitDy=0;entryX=1;entryY=0.5;entryDx=0;entryDy=0;" edge="1" parent="1" source="OTEw4OgLr6QhDQMsbYtA-35" target="OTEw4OgLr6QhDQMsbYtA-36">
          <mxGeometry relative="1" as="geometry" />
        </mxCell>
        <mxCell id="OTEw4OgLr6QhDQMsbYtA-35" value="注入ExtraInfo" style="rounded=0;whiteSpace=wrap;html=1;fillColor=#dae8fc;strokeColor=#6c8ebf;" vertex="1" parent="1">
          <mxGeometry x="475.95" y="1850" width="114.05" height="50" as="geometry" />
        </mxCell>
        <mxCell id="OTEw4OgLr6QhDQMsbYtA-46" style="edgeStyle=orthogonalEdgeStyle;rounded=0;orthogonalLoop=1;jettySize=auto;html=1;exitX=0;exitY=0.5;exitDx=0;exitDy=0;" edge="1" parent="1" source="OTEw4OgLr6QhDQMsbYtA-36">
          <mxGeometry relative="1" as="geometry">
            <mxPoint x="170" y="1790" as="targetPoint" />
          </mxGeometry>
        </mxCell>
        <mxCell id="OTEw4OgLr6QhDQMsbYtA-36" value="注入弹窗&lt;br&gt;（又是电商规则？）" style="rounded=0;whiteSpace=wrap;html=1;fillColor=#dae8fc;strokeColor=#6c8ebf;" vertex="1" parent="1">
          <mxGeometry x="300.00000000000006" y="1850" width="114.05" height="50" as="geometry" />
        </mxCell>
        <mxCell id="OTEw4OgLr6QhDQMsbYtA-47" value="返回数据" style="text;html=1;align=center;verticalAlign=middle;resizable=0;points=[];autosize=1;strokeColor=none;fillColor=none;" vertex="1" parent="1">
          <mxGeometry x="170" y="1880" width="70" height="30" as="geometry" />
        </mxCell>
        <mxCell id="OTEw4OgLr6QhDQMsbYtA-50" style="edgeStyle=orthogonalEdgeStyle;rounded=0;orthogonalLoop=1;jettySize=auto;html=1;exitX=1;exitY=0.5;exitDx=0;exitDy=0;entryX=0;entryY=0.5;entryDx=0;entryDy=0;" edge="1" parent="1" source="OTEw4OgLr6QhDQMsbYtA-48" target="nzKU1kesUL4rAlOl88Yz-5">
          <mxGeometry relative="1" as="geometry" />
        </mxCell>
        <mxCell id="OTEw4OgLr6QhDQMsbYtA-48" value="并行邀请检查" style="rounded=0;whiteSpace=wrap;html=1;fillColor=#dae8fc;strokeColor=#6c8ebf;" vertex="1" parent="1">
          <mxGeometry x="470" y="275" width="120" height="50" as="geometry" />
        </mxCell>
        <mxCell id="OTEw4OgLr6QhDQMsbYtA-53" style="edgeStyle=orthogonalEdgeStyle;rounded=0;orthogonalLoop=1;jettySize=auto;html=1;exitX=1;exitY=0.5;exitDx=0;exitDy=0;entryX=0;entryY=0.5;entryDx=0;entryDy=0;" edge="1" parent="1" source="OTEw4OgLr6QhDQMsbYtA-51" target="nzKU1kesUL4rAlOl88Yz-19">
          <mxGeometry relative="1" as="geometry" />
        </mxCell>
        <mxCell id="OTEw4OgLr6QhDQMsbYtA-55" style="edgeStyle=orthogonalEdgeStyle;rounded=0;orthogonalLoop=1;jettySize=auto;html=1;exitX=0.5;exitY=0;exitDx=0;exitDy=0;entryX=0.5;entryY=1;entryDx=0;entryDy=0;" edge="1" parent="1" source="OTEw4OgLr6QhDQMsbYtA-51" target="OTEw4OgLr6QhDQMsbYtA-54">
          <mxGeometry relative="1" as="geometry" />
        </mxCell>
        <mxCell id="OTEw4OgLr6QhDQMsbYtA-51" value="beforeSendCallSignal&lt;br&gt;Hook" style="rounded=0;whiteSpace=wrap;html=1;fillColor=#dae8fc;strokeColor=#6c8ebf;" vertex="1" parent="1">
          <mxGeometry x="1420" y="275" width="120" height="50" as="geometry" />
        </mxCell>
        <mxCell id="OTEw4OgLr6QhDQMsbYtA-54" value="存储邀请对信息" style="rounded=0;whiteSpace=wrap;html=1;fillColor=#f8cecc;strokeColor=#b85450;" vertex="1" parent="1">
          <mxGeometry x="1420" y="190" width="120" height="50" as="geometry" />
        </mxCell>
        <mxCell id="OTEw4OgLr6QhDQMsbYtA-57" style="edgeStyle=orthogonalEdgeStyle;rounded=0;orthogonalLoop=1;jettySize=auto;html=1;exitX=1;exitY=0.5;exitDx=0;exitDy=0;entryX=0;entryY=0.5;entryDx=0;entryDy=0;" edge="1" parent="1" source="OTEw4OgLr6QhDQMsbYtA-56" target="nzKU1kesUL4rAlOl88Yz-55">
          <mxGeometry relative="1" as="geometry" />
        </mxCell>
        <mxCell id="OTEw4OgLr6QhDQMsbYtA-56" value="获取邀请对信息并刷新实体" style="rounded=0;whiteSpace=wrap;html=1;fillColor=#f8cecc;strokeColor=#b85450;" vertex="1" parent="1">
          <mxGeometry x="470" y="880" width="120" height="50" as="geometry" />
        </mxCell>
        <mxCell id="OTEw4OgLr6QhDQMsbYtA-62" style="edgeStyle=orthogonalEdgeStyle;rounded=0;orthogonalLoop=1;jettySize=auto;html=1;exitX=1;exitY=0.5;exitDx=0;exitDy=0;entryX=0;entryY=0.5;entryDx=0;entryDy=0;" edge="1" parent="1" source="OTEw4OgLr6QhDQMsbYtA-59" target="OTEw4OgLr6QhDQMsbYtA-61">
          <mxGeometry relative="1" as="geometry" />
        </mxCell>
        <mxCell id="OTEw4OgLr6QhDQMsbYtA-59" value="roomEnter" style="rounded=0;whiteSpace=wrap;html=1;fillColor=#dae8fc;strokeColor=#6c8ebf;" vertex="1" parent="1">
          <mxGeometry x="849.95" y="975" width="120" height="50" as="geometry" />
        </mxCell>
        <mxCell id="OTEw4OgLr6QhDQMsbYtA-61" value="拒绝其他chat邀请" style="rounded=0;whiteSpace=wrap;html=1;fillColor=#dae8fc;strokeColor=#6c8ebf;" vertex="1" parent="1">
          <mxGeometry x="1029.95" y="975" width="120" height="50" as="geometry" />
        </mxCell>
      </root>
    </mxGraphModel>
  </diagram>
</mxfile>
